<svg xmlns="http://www.w3.org/2000/svg" viewBox="0 0 256 256" fill="#0d9488" fill-rule="nonzero" aria-hidden="true"><path d="M 107.00 161.41 L 89.00 148.37 L 60.00 131.11 L 52.00 125.48 L 46.88 121.00 L 42.67 116.00 L 37.62 107.00 L 35.00 100.15 L 34.00 99.33 L 31.73 104.00 L 29.00 115.02 L 8.99 115.00 L 8.71 112.00 L 11.81 99.00 L 16.71 87.00 L 22.43 78.00 L 28.70 70.00 L 33.00 65.87 L 40.00 60.63 L 53.00 53.82 L 60.00 51.56 L 68.00 49.69 L 79.00 49.04 L 91.00 50.74 L 101.00 53.78 L 113.00 59.73 L 120.94 66.00 L 121.04 67.00 L 119.00 69.89 L 108.00 81.21 L 107.00 81.14 L 101.00 76.33 L 94.00 72.43 L 86.00 69.79 L 78.00 69.10 L 71.00 69.82 L 66.00 71.60 L 62.00 73.81 L 57.56 78.00 L 55.67 81.00 L 54.32 85.00 L 54.27 94.00 L 55.00 96.85 L 57.52 102.00 L 61.76 107.00 L 74.00 116.08 L 104.00 133.68 L 114.00 141.28 L 119.53 147.00 L 119.14 149.00 L 110.04 159.00 L 107.00 161.41 Z M 108.00 124.19 L 106.00 124.94 L 103.00 123.68 L 91.00 116.47 L 89.63 115.00 L 89.66 114.00 L 128.35 72.00 L 138.12 63.00 L 146.00 57.82 L 155.00 53.68 L 170.00 49.68 L 179.00 49.20 L 187.00 49.65 L 196.00 51.70 L 209.00 56.51 L 216.77 61.00 L 220.68 64.00 L 227.00 69.76 L 231.59 75.00 L 239.44 87.00 L 244.36 99.00 L 247.33 114.00 L 246.78 115.00 L 245.00 115.37 L 227.12 115.00 L 226.36 114.00 L 223.40 103.00 L 217.85 91.00 L 212.45 84.00 L 206.86 79.00 L 198.00 73.53 L 187.00 69.80 L 172.00 69.64 L 159.00 73.76 L 151.00 78.81 L 130.79 99.00 L 108.00 124.19 Z M 185.00 204.11 L 171.00 204.13 L 166.00 203.32 L 155.00 200.11 L 149.00 197.52 L 143.00 194.03 L 139.00 191.03 L 134.59 186.00 L 143.40 176.00 L 147.00 172.54 L 148.00 172.39 L 158.00 179.08 L 166.00 182.27 L 176.00 184.16 L 186.00 183.21 L 194.00 179.61 L 197.65 176.00 L 200.44 171.00 L 202.00 165.00 L 201.20 158.00 L 199.19 153.00 L 196.00 148.13 L 191.89 144.00 L 184.00 138.66 L 153.00 119.99 L 144.00 113.53 L 136.62 107.00 L 136.05 106.00 L 137.15 104.00 L 146.71 94.00 L 149.00 92.37 L 152.00 93.88 L 164.00 103.18 L 197.00 122.91 L 207.00 130.50 L 211.47 135.00 L 217.11 143.00 L 221.00 154.16 L 222.00 153.74 L 223.37 151.00 L 227.00 138.91 L 245.00 138.51 L 246.98 139.00 L 246.64 144.00 L 245.00 151.98 L 241.21 162.00 L 237.05 170.00 L 228.49 182.00 L 222.00 188.39 L 211.00 196.04 L 198.00 201.32 L 185.00 204.11 Z M 83.00 204.14 L 70.00 204.13 L 58.00 201.45 L 47.00 197.13 L 35.00 189.25 L 24.73 179.00 L 17.00 166.99 L 11.96 155.00 L 9.63 146.00 L 8.85 139.00 L 11.00 138.50 L 29.00 138.83 L 31.77 149.00 L 35.65 158.00 L 41.59 167.00 L 47.00 172.48 L 53.00 176.74 L 61.00 180.72 L 69.00 183.19 L 78.00 184.14 L 87.00 183.21 L 93.00 181.38 L 98.00 179.10 L 105.00 174.39 L 125.00 154.40 L 149.00 128.82 L 150.00 128.36 L 152.00 128.95 L 166.17 138.00 L 166.41 139.00 L 165.74 140.00 L 141.20 167.00 L 122.00 187.03 L 116.00 192.08 L 110.00 195.76 L 100.59 200.00 L 93.00 202.36 L 83.00 204.14 Z"/></svg>